<svg xmlns="http://www.w3.org/2000/svg" width="36" height="36" fill="currentColor" viewBox="0 0 36 36">
  <g clip-path="url(#a)">
    <path d="M13.05 23.85 7.2 18l5.85-5.85a1.476 1.476 0 0 0 0-2.1 1.476 1.476 0 0 0-2.1 0l-6.885 6.885a1.494 1.494 0 0 0 0 2.115l6.885 6.9a1.476 1.476 0 0 0 2.1 0 1.476 1.476 0 0 0 0-2.1Zm9.9 0L28.8 18l-5.85-5.85a1.476 1.476 0 0 1 0-2.1 1.476 1.476 0 0 1 2.1 0l6.885 6.885c.585.585.585 1.53 0 2.115l-6.885 6.9a1.476 1.476 0 0 1-2.1 0 1.476 1.476 0 0 1 0-2.1Z"/>
  </g>
  <defs>
    <clipPath id="a">
      <path d="M0 0h36v36H0z"/>
    </clipPath>
  </defs>
</svg>
